<svg width="81" height="16" viewBox="0 0 81 16" fill="none" xmlns="http://www.w3.org/2000/svg">
<path d="M6.41406 15.2203C5.1874 15.2203 4.12073 14.9869 3.21406 14.5203C2.32073 14.0536 1.55406 13.3736 0.914062 12.4803L2.59406 10.5603C3.2474 11.4803 3.88073 12.1136 4.49406 12.4603C5.12073 12.7936 5.8274 12.9603 6.61406 12.9603C7.0674 12.9603 7.48073 12.8936 7.85406 12.7603C8.2274 12.6269 8.52073 12.4403 8.73406 12.2003C8.9474 11.9469 9.05406 11.6536 9.05406 11.3203C9.05406 11.0936 9.0074 10.8869 8.91406 10.7003C8.83406 10.5003 8.7074 10.3269 8.53406 10.1803C8.37406 10.0203 8.1674 9.87361 7.91406 9.74027C7.67406 9.60694 7.3874 9.49361 7.05406 9.40027C6.73406 9.29361 6.38073 9.20694 5.99406 9.14027C5.2474 8.99361 4.60073 8.80027 4.05406 8.56027C3.52073 8.30694 3.0674 8.00027 2.69406 7.64027C2.33406 7.26694 2.06073 6.85361 1.87406 6.40027C1.70073 5.93361 1.61406 5.40694 1.61406 4.82027C1.61406 4.03361 1.83406 3.34027 2.27406 2.74027C2.7274 2.12694 3.3274 1.64694 4.07406 1.30027C4.83406 0.953607 5.6674 0.780273 6.57406 0.780273C7.7474 0.780273 8.74073 0.993607 9.55406 1.42027C10.3807 1.84694 11.0274 2.45361 11.4941 3.24027L9.77406 4.92027C9.37406 4.30694 8.90073 3.84027 8.35406 3.52027C7.8074 3.20027 7.21406 3.04027 6.57406 3.04027C6.09406 3.04027 5.67406 3.11361 5.31406 3.26027C4.9674 3.39361 4.69406 3.58694 4.49406 3.84027C4.29406 4.08027 4.19406 4.37361 4.19406 4.72027C4.19406 4.97361 4.2474 5.20694 4.35406 5.42027C4.47406 5.63361 4.6474 5.82027 4.87406 5.98027C5.10073 6.14027 5.3874 6.28027 5.73406 6.40027C6.08073 6.52027 6.48073 6.62694 6.93406 6.72027C7.6674 6.88027 8.32073 7.08027 8.89406 7.32027C9.48073 7.56027 9.97406 7.85361 10.3741 8.20027C10.7874 8.53361 11.1007 8.92027 11.3141 9.36027C11.5274 9.78694 11.6341 10.2669 11.6341 10.8003C11.6341 11.7069 11.4207 12.4936 10.9941 13.1603C10.5674 13.8269 9.96073 14.3403 9.17406 14.7003C8.3874 15.0469 7.4674 15.2203 6.41406 15.2203Z" fill="#011D0D"/>
<path d="M14.5327 15.0203V1.02027H20.3527C21.1527 1.02027 21.8727 1.21361 22.5127 1.60027C23.166 1.98694 23.6793 2.51361 24.0527 3.18027C24.4393 3.84694 24.6327 4.59361 24.6327 5.42027C24.6327 6.24694 24.4393 7.00027 24.0527 7.68027C23.6793 8.34694 23.166 8.88027 22.5127 9.28027C21.8727 9.68027 21.1527 9.88027 20.3527 9.88027H17.1127V15.0203H14.5327ZM17.1127 7.50027H20.1727C20.5193 7.50027 20.826 7.40694 21.0927 7.22027C21.3727 7.03361 21.5927 6.78694 21.7527 6.48027C21.926 6.16027 22.0127 5.81361 22.0127 5.44027C22.0127 5.05361 21.926 4.70694 21.7527 4.40027C21.5927 4.09361 21.3727 3.85361 21.0927 3.68027C20.826 3.50694 20.5193 3.42027 20.1727 3.42027H17.1127V7.50027Z" fill="#011D0D"/>
<path d="M27.3842 15.0203V1.02027H33.4842C34.3109 1.02027 35.0709 1.22027 35.7642 1.62027C36.4576 2.00694 37.0042 2.54027 37.4042 3.22027C37.8176 3.88694 38.0242 4.64027 38.0242 5.48027C38.0242 6.28027 37.8176 7.01361 37.4042 7.68027C37.0042 8.34694 36.4576 8.88027 35.7642 9.28027C35.0842 9.68027 34.3242 9.88027 33.4842 9.88027H29.9242V15.0203H27.3842ZM35.5242 15.0203L31.9642 8.70027L34.6242 8.20027L38.5842 15.0403L35.5242 15.0203ZM29.9242 7.60027H33.5042C33.8776 7.60027 34.2109 7.51361 34.5042 7.34027C34.7976 7.15361 35.0242 6.90694 35.1842 6.60027C35.3442 6.28027 35.4242 5.92694 35.4242 5.54027C35.4242 5.10027 35.3242 4.72027 35.1242 4.40027C34.9242 4.08027 34.6442 3.82694 34.2842 3.64027C33.9242 3.45361 33.5109 3.36027 33.0442 3.36027H29.9242V7.60027Z" fill="#011D0D"/>
<path d="M40.9291 15.0203V12.7203H43.2091V3.32027H40.9291V1.02027H48.0891V3.32027H45.7891V12.7203H48.0891V15.0203H40.9291Z" fill="#011D0D"/>
<path d="M51.4272 15.0203V1.02027H53.7472L61.9072 11.9803L61.4672 12.0803C61.3739 11.4669 61.2939 10.8136 61.2272 10.1203C61.1739 9.42694 61.1339 8.67361 61.1072 7.86027C61.0805 7.04694 61.0672 6.16027 61.0672 5.20027V1.02027H63.6272V15.0203H61.2672L53.1072 4.24027L53.5872 4.10027C53.6805 5.04694 53.7539 5.82694 53.8072 6.44027C53.8605 7.04027 53.9005 7.53361 53.9272 7.92027C53.9539 8.30694 53.9672 8.62694 53.9672 8.88027C53.9805 9.13361 53.9872 9.37361 53.9872 9.60027V15.0203H51.4272Z" fill="#011D0D"/>
<path d="M73.7242 15.2203C72.6842 15.2203 71.7176 15.0403 70.8242 14.6803C69.9442 14.3069 69.1709 13.7936 68.5042 13.1403C67.8376 12.4869 67.3242 11.7269 66.9642 10.8603C66.6042 9.98027 66.4242 9.02694 66.4242 8.00027C66.4242 6.98694 66.6109 6.04694 66.9842 5.18027C67.3576 4.31361 67.8709 3.55361 68.5242 2.90027C69.1909 2.24694 69.9709 1.74027 70.8642 1.38027C71.7709 1.02027 72.7442 0.840273 73.7842 0.840273C74.5042 0.840273 75.2042 0.940273 75.8842 1.14027C76.5642 1.34027 77.1776 1.62027 77.7242 1.98027C78.2842 2.34027 78.7442 2.74694 79.1042 3.20027L77.4642 4.90027C76.9042 4.36694 76.3176 3.96027 75.7042 3.68027C75.0909 3.40027 74.4442 3.26027 73.7642 3.26027C73.0976 3.26027 72.4776 3.38027 71.9042 3.62027C71.3442 3.86027 70.8442 4.19361 70.4042 4.62027C69.9776 5.04694 69.6442 5.54694 69.4042 6.12027C69.1776 6.69361 69.0642 7.32027 69.0642 8.00027C69.0642 8.66694 69.1842 9.29361 69.4242 9.88027C69.6776 10.4536 70.0242 10.9603 70.4642 11.4003C70.9175 11.8403 71.4309 12.1869 72.0042 12.4403C72.5909 12.6803 73.2109 12.8003 73.8642 12.8003C74.3576 12.8003 74.8176 12.7336 75.2442 12.6003C75.6709 12.4536 76.0509 12.2536 76.3842 12.0003C76.7176 11.7336 76.9709 11.4269 77.1442 11.0803C77.3309 10.7336 77.4242 10.3669 77.4242 9.98027V9.54027L77.7842 9.94027H73.6442V7.62027H79.9842C80.0109 7.76694 80.0309 7.93361 80.0442 8.12027C80.0576 8.29361 80.0642 8.46027 80.0642 8.62027C80.0776 8.78027 80.0842 8.92027 80.0842 9.04027C80.0842 9.96027 79.9176 10.8003 79.5842 11.5603C79.2642 12.3069 78.8176 12.9536 78.2442 13.5003C77.6709 14.0469 76.9976 14.4736 76.2242 14.7803C75.4642 15.0736 74.6309 15.2203 73.7242 15.2203Z" fill="#011D0D"/>
</svg>
